<?xml version="1.0" encoding="UTF-8"?>
<svg id="uuid-8b908df3-ae0d-43e6-bd7d-1d4a7f6174ff" data-name="Layer 1" xmlns="http://www.w3.org/2000/svg" viewBox="0 0 5000 5000">
  <defs>
    <style>
      .uuid-b3f087e1-ada5-429f-a3d4-183f6d9e65ba {
        fill: #fff;
      }

      .uuid-b3f087e1-ada5-429f-a3d4-183f6d9e65ba, .uuid-752d9564-86fa-445c-b6d4-39bb246e7d5f {
        stroke-width: 0px;
      }

      .uuid-752d9564-86fa-445c-b6d4-39bb246e7d5f {
        fill: #231f20;
      }
    </style>
  </defs>
  <rect class="uuid-752d9564-86fa-445c-b6d4-39bb246e7d5f" width="0" height="0"/>
  <g>
    <path class="uuid-b3f087e1-ada5-429f-a3d4-183f6d9e65ba" d="m3793.22,1144.8v2708.57c0,74.38-28.91,146.11-81.45,198.76-52.68,52.79-122.78,81.87-197.35,81.87h-1317.41c-74.47,0-144.48-29-197.14-81.66-52.66-52.66-81.66-122.67-81.66-197.14v-88.85c0-50.76,41.15-91.91,91.91-91.91h0c50.76,0,91.91,41.15,91.91,91.91v88.85c0,52.45,42.52,94.98,94.98,94.98h1317.41c52.45,0,94.98-42.52,94.98-94.98V1144.8c0-52.45-42.52-94.98-94.98-94.98h-1317.41c-52.45,0-94.98,42.52-94.98,94.98v88.85c0,50.76-41.15,91.91-91.91,91.91h0c-50.76,0-91.91-41.15-91.91-91.91v-88.85c0-74.47,29-144.48,81.66-197.14,52.66-52.66,122.67-81.66,197.14-81.66h1315.59c74.38,0,146.11,28.91,198.76,81.45,52.79,52.68,81.87,122.78,81.87,197.35Z"/>
    <path class="uuid-b3f087e1-ada5-429f-a3d4-183f6d9e65ba" d="m3266.65,2413.17l-647.69-602.31c-37.18-34.58-95.35-32.49-129.95,4.67h0c-34.65,37.2-32.55,95.45,4.69,130.06l497.44,462.4h-1692.43c-50.76,0-91.91,41.15-91.91,91.91h0c0,50.76,41.15,91.91,91.91,91.91h1692.79l-497.78,462.58c-37.24,34.61-39.34,92.86-4.7,130.07h0c34.6,37.15,92.76,39.25,129.94,4.68l647.68-602.16c50.49-46.94,50.49-126.87.01-173.81Z"/>
  </g>
</svg>